<?xml version="1.0" encoding="UTF-8" standalone="no"?>
<svg
   xmlns:dc="http://purl.org/dc/elements/1.1/"
   xmlns:cc="http://creativecommons.org/ns#"
   xmlns:rdf="http://www.w3.org/1999/02/22-rdf-syntax-ns#"
   xmlns:svg="http://www.w3.org/2000/svg"
   xmlns="http://www.w3.org/2000/svg"
   style="fill:none"
   id="svg174"
   version="1.1"
   viewBox="0 0 1088.3267 756.00012"
   height="756.00012"
   width="1088.3267">
  <metadata
     id="metadata180">
    <rdf:RDF>
      <cc:Work
         rdf:about="">
        <dc:format>image/svg+xml</dc:format>
        <dc:type
           rdf:resource="http://purl.org/dc/dcmitype/StillImage" />
        <dc:title></dc:title>
      </cc:Work>
    </rdf:RDF>
  </metadata>
  <defs
     id="defs178" />
  <path
     style="fill:#d6b49a"
     id="path2"
     d="m 513.93196,459.9221 c -24.554,-40.657 -67.141,-54.149 -81.133,-57.921 -3.819,-10.53 -4.976,-21.842 -3.368,-32.928 3.171,-21.782 8.346,-57.185 8.851,-59.772 l -105.8,41.156 -107.607,36.155 c 2.043,1.684 28.691,25.542 45.073,40.236 8.342,7.479 14.704,16.905 18.521,27.439 -8.328,11.859 -32.395,49.496 -25.211,96.444 6.786,44.338 37.694,72.4 58.274,91.14 14.859,13.483 31.472,24.893 49.39,33.922 7.894,5.661 16.906,9.571 26.433,11.468 9.527,1.899 19.349,1.739 28.81,-0.468 3.233,-0.752 9.451,-2.346 15.277,-4.142 2.57,-0.797 5.837,-1.813 9.575,-3.126 l 0.617,-0.23 0.618,-0.219 c 3.709,-1.386 6.869,-2.694 9.355,-3.732 5.613,-2.352 11.422,-5.113 14.385,-6.606 8.674,-4.368 16.315,-10.537 22.413,-18.095 6.098,-7.558 10.511,-16.331 12.945,-25.733 7.974,-18.408 13.421,-37.81 16.192,-57.679 3.828,-27.54 9.575,-68.909 -13.61,-107.309 z" />
  <path
     style="fill:#000000"
     id="path4"
     d="m 410.66796,689.4201 c -14.419,-0.01 -28.475,-4.519 -40.202,-12.909 -17.958,-9.061 -34.611,-20.506 -49.507,-34.023 -20.592,-18.717 -51.707,-46.998 -58.537,-91.634 -6.618,-43.249 12.757,-79.012 25.098,-96.697 -3.791,-10.234 -10.014,-19.393 -18.133,-26.687 -15.945,-14.306 -43.003,-38.551 -45.046,-40.207 -0.115,-0.097 -0.203,-0.221 -0.255,-0.362 -0.052,-0.141 -0.067,-0.293 -0.042,-0.441 0.027,-0.148 0.094,-0.287 0.192,-0.401 0.099,-0.114 0.226,-0.201 0.369,-0.25 l 107.613,-36.161 105.777,-41.128 c 0.14,-0.054 0.292,-0.069 0.439,-0.045 0.148,0.025 0.287,0.088 0.401,0.185 0.115,0.096 0.202,0.222 0.252,0.363 0.049,0.141 0.06,0.293 0.031,0.44 -0.5,2.582 -5.753,38.53 -8.84,59.733 -1.562,10.802 -0.475,21.821 3.166,32.109 20.805,5.674 58.588,20.727 81.206,58.184 23.342,38.653 17.556,80.303 13.728,107.866 -2.781,19.921 -8.239,39.375 -16.226,57.836 -2.475,9.505 -6.948,18.374 -13.122,26.013 -6.174,7.64 -13.905,13.876 -22.679,18.291 -3.227,1.622 -8.947,4.333 -14.447,6.629 -2.587,1.083 -5.646,2.346 -9.255,3.698 l -0.129,0.062 -1.234,0.443 -0.13,0.04 c -3.653,1.274 -6.807,2.245 -9.485,3.086 -5.696,1.763 -11.819,3.368 -15.333,4.165 -5.137,1.192 -10.395,1.802 -15.67,1.802 z m -184.121,-302.483 c 5.713,4.995 29.443,26.261 43.968,39.287 8.437,7.578 14.877,17.118 18.751,27.776 0.046,0.127 0.061,0.263 0.044,0.397 -0.018,0.134 -0.068,0.262 -0.145,0.372 -12.185,17.354 -31.643,52.875 -25.071,95.833 6.735,44.052 37.603,72.091 58.01,90.646 14.799,13.428 31.345,24.795 49.188,33.792 l 0.112,0.068 c 7.796,5.59 16.697,9.451 26.105,11.325 9.409,1.877 19.11,1.717 28.453,-0.46 3.491,-0.813 9.569,-2.379 15.227,-4.13 2.688,-0.825 5.865,-1.824 9.541,-3.11 l 0.112,-0.033 0.999,-0.359 0.107,-0.051 c 3.637,-1.358 6.735,-2.632 9.322,-3.721 5.455,-2.279 11.13,-4.967 14.334,-6.578 8.571,-4.312 16.122,-10.404 22.148,-17.87 6.026,-7.465 10.388,-16.131 12.795,-25.418 0.013,-0.042 0.028,-0.084 0.045,-0.124 7.943,-18.336 13.369,-37.663 16.13,-57.454 3.794,-27.327 9.541,-68.624 -13.503,-106.766 -22.467,-37.205 -60.171,-52.033 -80.64,-57.544 -0.128,-0.038 -0.246,-0.105 -0.343,-0.197 -0.098,-0.092 -0.172,-0.205 -0.218,-0.331 -3.853,-10.665 -5.019,-22.115 -3.395,-33.337 2.806,-19.302 7.414,-50.832 8.609,-58.325 l -104.436,40.612 z" />
  <path
     style="fill:#020202"
     id="path6"
     d="m 337.37896,364.0261 c 58.935,-21.346 104.06,-45.969 100.79,-54.998 -3.27,-9.029 -53.697,0.956 -112.632,22.302 -58.935,21.345 -104.06,45.969 -100.79,54.998 3.27,9.028 53.698,-0.957 112.632,-22.302 z" />
  <path
     style="fill:#000000"
     id="path8"
     d="m 235.57796,390.4571 c -6.072,0 -10.579,-1.039 -11.606,-3.867 -2.245,-6.174 13.7,-16.394 27.456,-23.904 19.082,-10.405 45.298,-21.832 73.837,-32.176 28.539,-10.343 56.001,-18.358 77.311,-22.579 15.378,-3.042 34.169,-5.382 36.397,0.775 2.228,6.157 -13.7,16.399 -27.456,23.909 -19.083,10.405 -45.293,21.832 -73.837,32.17 -28.545,10.338 -55.996,18.359 -77.312,22.585 -8.317,1.644 -17.634,3.087 -24.79,3.087 z m 191.833,-83.957 c -5.124,0 -12.852,0.775 -24.504,3.081 -21.237,4.21 -48.603,12.202 -77.07,22.512 -28.466,10.31 -54.603,21.703 -73.612,32.069 -26.805,14.626 -27.198,20.43 -26.682,21.855 0.517,1.426 4.535,5.613 34.489,-0.303 21.231,-4.204 48.603,-12.201 77.064,-22.511 28.461,-10.31 54.603,-21.698 73.607,-32.07 26.799,-14.626 27.192,-20.423 26.676,-21.855 -0.303,-0.853 -1.925,-2.778 -9.968,-2.778 z" />
  <path
     style="fill:#818181"
     id="path10"
     d="m 449.78196,701.3001 -0.051,46.48 c 0,3.47 3.738,6.3 8.352,6.3 h 0.168 c 4.614,0 8.363,-2.81 8.363,-6.29 l 0.05,-45.96 c 0,-0.3 -3.9,-0.56 -8.637,-0.56 h -8.245" />
  <path
     style="fill:#191818"
     id="path12"
     d="m 458.24596,754.9201 h -0.18 c -5.051,0 -9.193,-3.21 -9.193,-7.14 l 0.051,-47.33 h 9.086 c 2.301,0 4.49,0.06 6.174,0.16 2.312,0.15 3.334,0.25 3.334,1.22 l -0.051,45.97 c -0.03,1.02 -0.299,2.01 -0.787,2.9 -0.488,0.89 -1.18,1.65 -2.019,2.22 -1.868,1.34 -4.118,2.04 -6.415,2 z m -7.639,-52.75 -0.05,45.64 c 0,3 3.367,5.45 7.509,5.46 h 0.18 c 1.932,0.03 3.824,-0.56 5.393,-1.69 0.625,-0.42 1.143,-0.98 1.51,-1.63 0.368,-0.66 0.576,-1.39 0.606,-2.14 l 0.051,-45.35 c -2.574,-0.25 -5.16,-0.35 -7.745,-0.32 h -7.454 z" />
  <path
     style="fill:#818181"
     id="path14"
     d="m 893.15996,701.3001 -0.05,46.48 c 0,3.47 3.74,6.3 8.35,6.3 h 0.17 c 4.62,0 8.37,-2.81 8.37,-6.29 l 0.05,-45.96 c 0,-0.3 -3.93,-0.56 -8.64,-0.56 h -8.25" />
  <path
     style="fill:#191818"
     id="path16"
     d="m 901.62996,754.9201 h -0.18 c -5.05,0 -9.2,-3.21 -9.2,-7.14 l 0.06,-47.33 h 9.08 c 2.33,0 4.49,0.06 6.15,0.16 2.31,0.15 3.33,0.25 3.33,1.22 l -0.05,45.97 c -0.03,1.02 -0.3,2.01 -0.79,2.9 -0.48,0.89 -1.18,1.65 -2.02,2.22 -1.86,1.34 -4.09,2.04 -6.38,2 z m -7.64,-52.75 -0.05,45.64 c 0,3 3.37,5.45 7.51,5.46 h 0.18 c 1.93,0.03 3.82,-0.56 5.39,-1.69 0.63,-0.42 1.14,-0.98 1.51,-1.63 0.37,-0.66 0.58,-1.39 0.61,-2.14 l 0.05,-45.35 c -2.58,-0.25 -5.16,-0.35 -7.75,-0.32 h -7.45 z" />
  <path
     style="fill:#dcdbda"
     id="path18"
     d="m 936.09996,689.7901 h -600.672 c -1.6,0 -3.135,0.64 -4.266,1.77 -1.132,1.13 -1.767,2.66 -1.767,4.26 0,1.6 0.635,3.14 1.767,4.27 1.131,1.13 2.666,1.77 4.266,1.77 h 594.782 c 0.8,0 1.59,-0.16 2.34,-0.48 0.74,-0.31 1.41,-0.77 1.97,-1.34 0.56,-0.58 1,-1.26 1.3,-2.01 0.29,-0.74 0.43,-1.54 0.41,-2.35 z" />
  <path
     style="fill:#000000"
     id="path20"
     d="m 930.20996,702.7001 h -594.781 c -1.823,0 -3.572,-0.73 -4.862,-2.01 -1.289,-1.29 -2.013,-3.04 -2.013,-4.87 0,-1.82 0.724,-3.57 2.013,-4.86 1.29,-1.29 3.039,-2.01 4.862,-2.01 h 601.511 l 0.15,6.73 c 0.02,0.92 -0.14,1.83 -0.48,2.68 -0.34,0.85 -0.84,1.63 -1.48,2.28 -0.64,0.66 -1.41,1.17 -2.26,1.53 -0.84,0.35 -1.75,0.53 -2.66,0.53 z m -594.781,-12.07 c -1.377,0 -2.697,0.55 -3.671,1.52 -0.974,0.98 -1.521,2.3 -1.521,3.67 0,1.38 0.547,2.7 1.521,3.67 0.974,0.98 2.294,1.52 3.671,1.52 h 594.781 c 0.69,0 1.37,-0.13 2.01,-0.4 0.64,-0.27 1.21,-0.66 1.7,-1.16 0.48,-0.49 0.86,-1.08 1.11,-1.72 0.26,-0.65 0.38,-1.33 0.36,-2.02 l -0.12,-5.06 z" />
  <path
     style="fill:#4ea7f1"
     id="path22"
     d="m 305.39696,376.0561 c 0,0 -21.676,82.783 -18.061,117.462 2.155,20.699 1.482,55.002 0.561,79.36 -0.284,7.669 -3.555,14.923 -9.114,20.213 -5.559,5.291 -12.966,8.198 -20.64,8.103 -7.673,-0.095 -15.006,-3.186 -20.432,-8.613 -5.426,-5.426 -8.515,-12.759 -8.61,-20.433 -0.151,-12.347 -1.56,-21.742 -0.28,-28.735 7.672,-41.987 -4.081,-42.655 2.851,-80.965 1.186,-4.146 2.413,-8.316 3.682,-12.51 6.633,-21.889 13.902,-42.234 21.607,-62.079 8.273,-0.781 17.511,-3.239 27.462,-5.461 7.65,-1.706 14.648,-4.255 20.974,-6.342 z" />
  <path
     style="fill:#000000"
     id="path24"
     d="m 258.53196,602.0281 c -7.949,-0.028 -15.569,-3.172 -21.225,-8.757 -5.656,-5.584 -8.897,-13.164 -9.026,-21.112 -0.051,-4.366 -0.27,-8.419 -0.46,-12.033 -0.348,-6.578 -0.652,-12.263 0.19,-16.837 3.929,-21.389 2.745,-32.059 1.617,-42.374 -1.123,-10.176 -2.167,-19.784 1.234,-38.591 v -0.079 c 1.202,-4.187 2.442,-8.418 3.688,-12.527 6.033,-19.918 12.908,-39.663 21.63,-62.141 l 0.191,-0.482 0.516,-0.051 c 6.432,-0.6 13.509,-2.245 21.002,-3.985 2.082,-0.482 4.198,-0.976 6.353,-1.453 5.859,-1.401 11.639,-3.113 17.315,-5.13 1.208,-0.412 2.396,-0.808 3.564,-1.19 l 1.464,-0.488 -0.387,1.498 c -0.219,0.825 -21.602,83.025 -18.044,117.165 2.144,20.604 1.504,54.593 0.589,79.473 -0.271,7.823 -3.575,15.234 -9.214,20.665 -5.639,5.43 -13.169,8.453 -20.997,8.429 z m -26.019,-139.39 c -3.368,18.521 -2.313,28.023 -1.213,38.069 1.123,10.434 2.324,21.226 -1.633,42.857 -0.803,4.405 -0.505,10.001 -0.163,16.472 0.191,3.609 0.41,7.7 0.46,12.101 0.096,7.451 3.099,14.57 8.369,19.839 5.271,5.268 12.391,8.269 19.843,8.361 7.451,0.092 14.644,-2.731 20.043,-7.867 5.399,-5.137 8.578,-12.179 8.858,-19.626 0.914,-24.83 1.554,-58.729 -0.562,-79.237 -3.317,-31.867 14.806,-104.879 17.708,-116.267 l -2.116,0.679 c -5.732,2.036 -11.567,3.763 -17.483,5.175 -2.144,0.483 -4.258,0.967 -6.342,1.454 -7.347,1.683 -14.301,3.322 -20.704,3.973 -8.621,22.231 -15.423,41.802 -21.395,61.535 -1.246,4.131 -2.481,8.318 -3.67,12.482 z" />
  <path
     style="fill:#4ea7f1"
     id="path26"
     d="m 315.51596,552.7741 c -5.006,0 -8.671,-7.257 -10.102,-10.103 -9.873,-19.548 5.051,-53.649 10.843,-65.755 5.534,12.46 19.262,46.28 9.395,65.755 -1.493,2.891 -5.146,10.103 -10.136,10.103 z" />
  <path
     style="fill:#000000"
     id="path28"
     d="m 315.51596,553.6161 c -5.528,0 -9.271,-7.414 -10.865,-10.58 -9.328,-18.465 2.806,-49.591 10.826,-66.496 l 0.786,-1.684 0.746,1.684 c 7.515,16.91 18.723,48.026 9.373,66.479 -1.6,3.183 -5.354,10.597 -10.866,10.597 z m 0.691,-74.685 c -7.858,16.944 -18.768,46.106 -10.063,63.348 1.335,2.637 4.877,9.653 9.367,9.653 4.49,0 8.026,-7.016 9.367,-9.653 8.727,-17.247 -1.308,-46.398 -8.671,-63.348 z" />
  <path
     style="fill:#f8f3ed"
     id="path30"
     d="m 986.76996,465.5731 c -62.16,-53.784 -139.19,-41.829 -150.3,-39.921 -106.93,17.067 -193.41,56.124 -206.65,105.677 -2.72,10.231 -4.92,20.596 -6.57,31.053 -26.462,-4.49 -70.879,-6.69 -96.747,21.451 l -0.129,0.146 c -7.346,8.037 -2.194,21.024 8.638,22.152 6.488,0.673 14.283,1.325 23.073,1.751 18.246,0.887 57.297,29.185 81.755,47.992 15.25,17.426 36.78,28.106 59.89,29.707 h 0.37 c 6.78,4.549 24.69,15.219 49.48,14.829 13.08,-0.22 25.93,-3.43 37.58,-9.39 l 90.01,-1.23 c 41.66,12.09 75.12,10.83 95.51,8.28 29.30004,-3.67 40.30004,-10.985 45.23004,-15.032 17,-14.031 23.19,-35.886 27.57,-57.769 8.99,-44.961 -5.49,-113.64 -58.71004,-159.696 z" />
  <path
     style="fill:#000000"
     id="path32"
     d="m 748.30996,701.3001 c -22.67,0 -39.96,-9.19 -48.45,-14.843 h -0.19 c -23.3,-1.614 -45.02,-12.375 -60.41,-29.937 -40.412,-31.042 -67.744,-47.144 -81.214,-47.767 -7.801,-0.382 -15.58,-0.971 -23.123,-1.757 -2.638,-0.269 -5.148,-1.269 -7.248,-2.887 -2.1,-1.618 -3.707,-3.79 -4.639,-6.272 -0.952,-2.412 -1.202,-5.045 -0.722,-7.593 0.481,-2.549 1.673,-4.909 3.438,-6.809 l 0.129,-0.14 c 11.579,-12.594 27.945,-20.407 48.66,-23.236 17.892,-2.441 35.835,-0.634 48.014,1.381 1.635,-10.204 3.785,-20.32 6.445,-30.307 6.38,-23.864 30.11,-46.533 68.64,-65.553 36.41,-17.96 84.37,-32.064 138.7,-40.741 7.99,-1.369 29.46,-4.215 56.23,-0.926 36.6,4.49 68.47,18.313 94.75,41.044 24.71004,21.506 43.03004,49.404 52.94004,80.634 8.74,27.282 10.89,55.647 6.05,79.859 -4.1,20.457 -9.96,43.513 -27.87,58.251 -9.17,7.539 -24.10004,12.519 -45.66004,15.219 -31.13,3.9 -63.34,1.12 -95.72,-8.27 l -89.7,1.23 c -11.71,5.94 -24.62,9.15 -37.76,9.39 -0.43,0.03 -0.87,0.03 -1.29,0.03 z m -47.99,-16.538 0.24,0.146 c 8.42,5.612 25.98,15.062 49.01,14.692 12.95,-0.24 25.67,-3.42 37.21,-9.3 l 0.17,-0.09 90.36,-1.23 0.12,0.03 c 32.21,9.35 64.23,12.12 95.17,8.25 21.23,-2.65 35.89004,-7.51 44.80004,-14.844 17.48,-14.39 23.25,-37.115 27.28,-57.286 8.9,-44.478 -5.61,-113.169 -58.43004,-158.888 -60.06,-51.982 -135.17,-42.217 -149.6,-39.73 -54.18,8.648 -101.98,22.685 -138.24,40.589 -38.07,18.801 -61.5,41.094 -67.76,64.475 -2.71,10.205 -4.89,20.544 -6.53,30.975 l -0.139,0.842 -0.842,-0.146 c -24.695,-4.203 -70.038,-7.038 -95.973,21.187 l -0.129,0.141 c -1.555,1.67 -2.604,3.748 -3.026,5.991 -0.422,2.243 -0.2,4.56 0.641,6.681 0.82,2.182 2.23,4.093 4.074,5.52 1.843,1.426 4.047,2.311 6.365,2.557 7.515,0.78 15.26,1.369 23.011,1.745 13.829,0.674 41.493,16.877 82.218,48.166 l 0.13,0.112 c 15.1,17.25 36.4,27.828 59.27,29.426 z" />
  <path
     style="fill:#f8f3ed"
     id="path34"
     d="m 622.64496,561.5461 c -5.265,-15.462 -13.279,-44.776 -13.964,-72.484 -0.507,-20.582 1.863,-41.133 7.044,-61.058 -14.734,-30.275 -21.057,-63.953 -18.308,-97.51 0.144,-1.629 0.703,-3.195 1.624,-4.547 0.92,-1.351 2.172,-2.445 3.635,-3.177 1.462,-0.731 3.088,-1.076 4.722,-1.001 1.634,0.075 3.221,0.567 4.611,1.429 l 74.141,46.083 c 27.59,-7.496 56.57,-8.3 84.54,-2.346 l 67.24,-55.002 c 1.06,-0.864 2.32,-1.434 3.67,-1.65 1.34,-0.216 2.72,-0.071 4,0.42 1.27,0.492 2.39,1.312 3.24,2.377 0.85,1.065 1.4,2.337 1.6,3.686 5.47,38.081 2.29,76.905 -9.3,113.59 5.16,15.785 6.53,32.561 4.01,48.974" />
  <path
     style="fill:#000000"
     id="path36"
     d="m 621.84796,561.8151 c -3.087,-9.064 -13.223,-41.1 -14.031,-72.731 -0.51,-20.556 1.844,-41.083 6.993,-60.991 -14.702,-30.336 -21.004,-64.058 -18.251,-97.656 0.134,-1.773 0.726,-3.482 1.719,-4.957 0.993,-1.476 2.352,-2.669 3.944,-3.462 1.6,-0.813 3.384,-1.199 5.178,-1.12 1.794,0.08 3.537,0.622 5.059,1.575 l 73.831,45.893 c 27.49,-7.406 56.33,-8.21 84.19,-2.346 l 66.93,-54.761 c 1.16,-0.96 2.57,-1.592 4.06,-1.832 1.5,-0.241 3.03,-0.079 4.44,0.466 1.41,0.546 2.65,1.457 3.59,2.64 0.95,1.182 1.56,2.595 1.78,4.092 5.48,38.117 2.32,76.978 -9.25,113.708 5.12,15.837 6.47,32.653 3.93,49.103 l -1.69,-0.258 c 2.5,-16.282 1.14,-32.923 -3.97,-48.581 l -0.09,-0.259 0.09,-0.258 c 11.55,-36.565 14.72,-75.263 9.26,-113.219 -0.18,-1.201 -0.67,-2.333 -1.43,-3.281 -0.76,-0.947 -1.75,-1.677 -2.89,-2.114 -1.13,-0.437 -2.36,-0.566 -3.56,-0.373 -1.19,0.192 -2.32,0.699 -3.26,1.469 l -67.56,55.276 -0.39,-0.084 c -27.83,-5.927 -56.68,-5.127 -84.15,2.335 l -0.35,0.095 -74.449,-46.28 c -1.277,-0.799 -2.74,-1.254 -4.246,-1.321 -1.505,-0.067 -3.003,0.257 -4.346,0.94 -1.329,0.661 -2.465,1.656 -3.296,2.886 -0.831,1.23 -1.329,2.655 -1.447,4.135 -2.744,33.413 3.551,66.95 18.224,97.095 l 0.135,0.28 -0.079,0.304 c -5.162,19.847 -7.524,40.32 -7.016,60.821 0.781,31.396 10.849,63.23 13.919,72.238 z" />
  <path
     style="fill:#4ea7f1"
     id="path38"
     d="m 238.91696,661.1661 h -0.163 c 0,0 -4.77,-0.061 -9.227,-4.338 -3.508,-3.367 -0.477,-18.201 10.103,-35.403 9.036,17.477 11.269,32.064 7.947,35.403 -4.266,4.316 -8.66,4.338 -8.66,4.338 z" />
  <path
     style="fill:#000000"
     id="path40"
     d="m 238.92296,662.0081 h -0.169 c -0.213,0 -5.158,-0.118 -9.799,-4.568 -4.327,-4.148 0.151,-20.503 9.979,-36.481 l 0.78,-1.269 0.685,1.325 c 8.418,16.315 11.859,32.294 7.801,36.385 -4.462,4.49 -9.047,4.586 -9.266,4.586 z m 0.651,-38.86 c -10.327,17.258 -12.202,30.447 -9.469,33.074 4.17,4.001 8.61,4.102 8.655,4.102 h 0.151 c 0.085,0 4.148,-0.123 8.082,-4.085 2.604,-2.649 1.403,-15.502 -7.419,-33.091 z" />
  <path
     style="fill:#333333"
     id="path42"
     d="m 1047.79,596.6241 c 8.31,3.828 21.46,11.455 30.3,25.817 20.44,33.198 5.21,81.809 -23.21,107.379 -20.64,18.57 -44.39,21.49 -63.08004,23.9 -10.96,1.4 -61.74,7.73 -96.61,-23.9 -7.06,-6.39 -23.58,-21.39 -21.14,-39.92 1.26,-9.538 7.74,-22.273 18.78,-25.815 21.17,-6.813 33.84,28.155 73.58,32.455 5.72,0.62 30.24,2.57 49.39004,-12.906 3.13,-2.537 8.31,-7.297 14.59,-17.96 6.45,-10.961 17.36,-33.68 17.4,-69.05 z" />
  <path
     style="fill:#191818"
     id="path44"
     d="m 969.81996,756.0001 c -30.52,0 -56.72,-8.79 -75.21,-25.55 -7.15,-6.49 -23.91,-21.69 -21.4,-40.66 1.39,-10.529 8.49,-23.011 19.36,-26.524 10.66,-3.429 18.96,3.092 29.49,11.337 10.75,8.419 24.14,18.887 44.43,21.087 8.76,0.95 31.05,1.6 48.77004,-12.73 3.24,-2.615 8.25,-7.296 14.4,-17.73 11.27,-19.133 17.25,-42.856 17.28,-68.606 v -1.313 l 1.2,0.561 c 13.46,6.218 23.81,15.013 30.67,26.137 9.63,15.642 12.05,35.953 6.81,57.191 -4.85,19.68 -15.85,38.36 -30.19,51.26 -20.66,18.59 -44.18,21.61 -63.08004,24.04 l -0.45,0.06 c -7.32,0.95 -14.7,1.43 -22.08,1.44 z m -71.57,-91.96 c -1.75,0.004 -3.49,0.284 -5.16,0.831 -10.2,3.283 -16.88,15.154 -18.21,25.139 -2.39,18.09 13.91,32.88 20.87,39.19 22.45,20.34 56.5,28.75 95.97,23.68 l 0.45,-0.06 c 18.67004,-2.4 41.90004,-5.38 62.17004,-23.62 27.5,-24.76 43.35,-73.382 23.06,-106.316 -6.47,-10.512 -16.14,-18.897 -28.75,-24.936 -0.23,25.543 -6.27,49.076 -17.51,68.135 -6.29,10.664 -11.45,15.491 -14.79,18.19 -18.21004,14.727 -41.04004,14.027 -50.00004,13.087 -20.77,-2.24 -34.38,-12.907 -45.29,-21.427 -8.33,-6.51 -15.21,-11.893 -22.81,-11.893 z" />
  <path
     style="fill:#191818"
     id="path46"
     d="m 787.36996,691.7501 c -0.19,0 -0.38,-0.06 -0.53,-0.18 -0.15,-0.12 -0.25,-0.29 -0.29,-0.48 -0.04,-0.18 -0.02,-0.38 0.07,-0.55 0.08,-0.17 0.22,-0.31 0.4,-0.39 0.38,-0.18 38.46,-18.207 47.24,-52.196 0.02,-0.112 0.07,-0.219 0.13,-0.313 0.07,-0.094 0.15,-0.174 0.25,-0.235 0.1,-0.061 0.21,-0.101 0.32,-0.119 0.11,-0.017 0.23,-0.012 0.34,0.017 0.11,0.029 0.21,0.08 0.3,0.15 0.09,0.07 0.17,0.158 0.22,0.258 0.06,0.1 0.09,0.211 0.1,0.325 0.02,0.114 0,0.229 -0.03,0.338 -4.69,18.19 -17.55,31.721 -27.5,39.848 -6.36,5.244 -13.29,9.753 -20.67,13.437 -0.11,0.06 -0.23,0.09 -0.35,0.09 z" />
  <path
     style="fill:#333333"
     id="path48"
     d="m 770.71996,366.9461 67.24,-55.002 c 1.05,-0.865 2.32,-1.434 3.67,-1.65 1.34,-0.216 2.72,-0.071 3.99,0.42 1.28,0.491 2.39,1.311 3.25,2.376 0.85,1.066 1.4,2.337 1.6,3.686 1.82,12.673 2.32,25.515 2.44,45.461 0.13,19.947 -6.89,38.232 -11.66,68.259 -16.53,-27.838 -41.13,-49.999 -70.53,-63.55 z" />
  <path
     style="fill:#191818"
     id="path50"
     d="m 841.70996,432.9201 -1.19,-1.992 c -16.44,-27.692 -40.9,-49.737 -70.15,-63.219 l -1.22,-0.561 68.28,-55.872 c 1.17,-0.96 2.57,-1.593 4.07,-1.833 1.49,-0.24 3.02,-0.079 4.43,0.467 1.42,0.546 2.66,1.457 3.6,2.639 0.94,1.183 1.56,2.595 1.78,4.093 1.89,13.217 2.33,26.726 2.45,45.601 0.08,12.218 -2.55,24.01 -5.61,37.653 -1.98,8.879 -4.22,18.942 -6.09,30.734 z m -69.42,-66.171 c 28.31,13.343 52.11,34.669 68.47,61.355 1.8,-10.871 3.89,-20.238 5.74,-28.572 3.14,-14.104 5.61,-25.256 5.55,-37.278 -0.12,-18.802 -0.57,-32.255 -2.44,-45.377 -0.18,-1.2 -0.67,-2.332 -1.43,-3.28 -0.76,-0.948 -1.76,-1.677 -2.89,-2.114 -1.13,-0.437 -2.36,-0.566 -3.56,-0.374 -1.2,0.193 -2.32,0.7 -3.26,1.469 z" />
  <path
     style="fill:#191818"
     id="path52"
     d="m 702.05996,687.2651 c -0.21,0.001 -0.4,-0.073 -0.56,-0.208 -1.57,-1.37 -5.24,-5.141 -5.32,-10.54 -0.07,-4.754 2.65,-8.06 3.54,-9.149 4.55,-5.539 11.26,-6.044 19.05,-6.633 4.39,-0.332 9.37,-0.708 14.5,-2.066 9.04,-2.391 17.6,-7.605 25.44,-15.496 0.16,-0.148 0.37,-0.229 0.59,-0.226 0.21,0.004 0.42,0.093 0.58,0.247 0.15,0.154 0.24,0.362 0.24,0.58 0.01,0.218 -0.07,0.43 -0.22,0.589 -8.05,8.104 -16.84,13.47 -26.2,15.934 -5.28,1.397 -10.34,1.779 -14.8,2.116 -7.71,0.561 -13.79,1.044 -17.88,6.022 -0.79,0.971 -3.21,3.929 -3.16,8.059 0.07,4.715 3.37,8.071 4.75,9.294 0.17,0.148 0.27,0.356 0.28,0.579 0.02,0.223 -0.05,0.443 -0.2,0.611 -0.08,0.09 -0.18,0.162 -0.28,0.211 -0.11,0.05 -0.23,0.075 -0.35,0.076 z" />
  <path
     style="fill:#333333"
     id="path54"
     d="m 726.75996,515.2441 c 47.42,0 85.87,-29.399 85.87,-65.665 0,-36.266 -38.45,-65.666 -85.87,-65.666 -47.43,0 -85.88,29.4 -85.88,65.666 0,36.266 38.45,65.665 85.88,65.665 z" />
  <path
     style="fill:#191818"
     id="path56"
     d="m 726.75996,516.0851 c -47.82,0 -86.72,-29.836 -86.72,-66.507 0,-36.672 38.9,-66.508 86.72,-66.508 47.81,0 86.71,29.836 86.71,66.508 0,36.671 -38.9,66.507 -86.71,66.507 z m 0,-131.331 c -46.87,0 -85.03,29.078 -85.03,64.824 0,35.745 38.16,64.823 85.03,64.823 46.86,0 85.02,-29.078 85.02,-64.823 0,-35.746 -38.16,-64.824 -85.02,-64.824 z" />
  <path
     style="fill:#f8f59c"
     id="path58"
     d="m 672.02996,463.0481 c 9.77,0 17.68,-7.915 17.68,-17.679 0,-9.764 -7.91,-17.68 -17.68,-17.68 -9.76,0 -17.67,7.916 -17.67,17.68 0,9.764 7.91,17.679 17.67,17.679 z" />
  <path
     style="fill:#191818"
     id="path60"
     d="m 672.02996,463.8901 c -3.66,0 -7.24,-1.087 -10.29,-3.122 -3.04,-2.035 -5.41,-4.927 -6.82,-8.312 -1.4,-3.384 -1.77,-7.108 -1.05,-10.701 0.71,-3.592 2.48,-6.892 5.07,-9.483 2.59,-2.59 5.89,-4.354 9.48,-5.068 3.59,-0.715 7.32,-0.348 10.7,1.053 3.39,1.402 6.28,3.776 8.31,6.822 2.04,3.046 3.13,6.627 3.13,10.29 0,4.912 -1.96,9.623 -5.43,13.096 -3.47,3.473 -8.18,5.425 -13.1,5.425 z m 0,-35.359 c -3.33,0 -6.58,0.988 -9.35,2.838 -2.77,1.85 -4.93,4.48 -6.2,7.556 -1.28,3.077 -1.61,6.462 -0.96,9.728 0.65,3.267 2.25,6.267 4.61,8.621 2.35,2.355 5.35,3.959 8.62,4.608 3.27,0.65 6.65,0.317 9.73,-0.958 3.07,-1.274 5.7,-3.432 7.55,-6.201 1.85,-2.769 2.84,-6.024 2.84,-9.354 0,-4.466 -1.77,-8.748 -4.93,-11.906 -3.16,-3.158 -7.44,-4.932 -11.91,-4.932 z" />
  <path
     style="fill:#f3d2c9"
     id="path62"
     d="m 850.22996,317.1251 c 0,0 -39.29,53.318 -43.22,65.665 -2.94,9.233 10.45,4.659 17.4,1.763 0.3,-0.124 0.63,-0.155 0.95,-0.087 0.32,0.068 0.61,0.23 0.83,0.465 0.23,0.236 0.38,0.534 0.43,0.855 0.05,0.321 0,0.65 -0.14,0.944 l -4.66,9.839 c -0.29,0.631 -0.4,1.337 -0.3,2.028 0.1,0.691 0.4,1.339 0.86,1.861 0.46,0.523 1.07,0.898 1.74,1.078 0.68,0.181 1.39,0.159 2.05,-0.062 l 5.57,-1.852 c 0.29,-0.098 0.61,-0.11 0.91,-0.034 0.3,0.077 0.57,0.238 0.78,0.465 0.21,0.226 0.35,0.509 0.4,0.814 0.06,0.305 0.02,0.619 -0.1,0.905 l -2.01,9.642 9.54,19.082 c 11.43,-36.644 14.5,-75.384 8.98,-113.371 z" />
  <path
     style="fill:#000000"
     id="path64"
     d="m 841.42996,432.7411 -10.61,-21.215 2.13,-10.102 c 0.05,-0.138 0.07,-0.288 0.05,-0.435 -0.03,-0.146 -0.1,-0.282 -0.2,-0.39 -0.1,-0.109 -0.23,-0.187 -0.38,-0.224 -0.14,-0.036 -0.29,-0.031 -0.43,0.016 l -5.56,1.858 c -0.82,0.275 -1.71,0.302 -2.54,0.079 -0.84,-0.223 -1.59,-0.687 -2.16,-1.334 -0.57,-0.647 -0.94,-1.449 -1.06,-2.304 -0.12,-0.856 0.01,-1.728 0.38,-2.508 l 4.66,-9.839 c 0.07,-0.141 0.09,-0.3 0.07,-0.454 -0.03,-0.155 -0.1,-0.298 -0.21,-0.41 -0.1,-0.114 -0.24,-0.193 -0.4,-0.225 -0.15,-0.032 -0.31,-0.016 -0.45,0.045 -9.42,3.929 -15.42,4.816 -17.83,2.616 -1.23,-1.123 -1.46,-2.953 -0.68,-5.405 3.93,-12.348 41.73,-63.729 43.34,-65.913 l 1.22,-1.65 0.29,2.026 c 5.55,38.111 2.48,76.98 -8.98,113.748 z m -8.84,-21.439 8.47,16.938 c 10.68,-35.273 13.63,-72.435 8.62,-108.949 -6.66,9.126 -38.41,52.897 -41.86,63.752 -0.57,1.779 -0.5,3.008 0.21,3.659 1.77,1.622 7.77,0.528 16.04,-2.929 0.46,-0.19 0.97,-0.235 1.45,-0.132 0.49,0.103 0.93,0.351 1.27,0.71 0.34,0.36 0.57,0.814 0.65,1.304 0.08,0.489 0.01,0.992 -0.21,1.44 l -4.65,9.833 c -0.23,0.482 -0.31,1.02 -0.24,1.548 0.08,0.528 0.3,1.022 0.66,1.421 0.35,0.4 0.81,0.686 1.33,0.825 0.51,0.139 1.06,0.123 1.56,-0.045 l 5.56,-1.852 c 0.44,-0.147 0.92,-0.167 1.37,-0.057 0.45,0.11 0.86,0.346 1.18,0.68 0.32,0.333 0.54,0.751 0.64,1.205 0.09,0.454 0.05,0.926 -0.11,1.36 z" />
  <path
     style="fill:#333333"
     id="path66"
     d="m 685.77996,369.3201 c -24.61,-15.26 -50.14,-31.485 -74.758,-46.745 -5.091,-3.155 -13.28,0.909 -13.352,6.897 -0.152,12.802 -2.245,26.996 1.683,46.583 2.116,10.574 3.059,16.041 5.197,23.292 2.872,9.748 6.579,19.231 11.079,28.343 2.895,-5.705 6.275,-11.15 10.101,-16.276 3.23,-4.327 14.91,-19.318 35.92,-31.43 7.65,-4.399 15.74,-7.973 24.13,-10.664 z" />
  <path
     style="fill:#191818"
     id="path68"
     d="m 615.61796,429.5691 -0.741,-1.509 c -4.519,-9.155 -8.244,-18.68 -11.135,-28.472 -1.801,-6.112 -2.806,-11.073 -4.265,-18.577 -0.292,-1.482 -0.606,-3.07 -0.949,-4.793 -3.036,-15.154 -2.492,-27.125 -2.015,-37.665 0.146,-3.166 0.281,-6.174 0.315,-9.092 0.033,-2.919 1.88,-5.77 4.939,-7.448 3.255,-1.791 6.97,-1.847 9.698,-0.152 12.308,7.622 25.045,15.625 37.375,23.365 12.32,7.739 25.07,15.748 37.39,23.381 l 1.55,0.96 -1.74,0.561 c -8.34,2.673 -16.37,6.223 -23.97,10.591 -18.89,10.894 -30.46,24.223 -35.66,31.205 -3.8,5.089 -7.154,10.492 -10.029,16.153 z m -8.649,-107.242 c -1.537,0.013 -3.046,0.412 -4.388,1.162 -2.52,1.381 -4.041,3.62 -4.069,5.994 -0.034,2.963 -0.175,5.966 -0.315,9.143 -0.477,10.45 -1.016,22.287 1.981,37.266 0.343,1.723 0.657,3.306 0.955,4.793 1.521,7.723 2.441,12.392 4.226,18.426 2.704,9.165 6.146,18.095 10.293,26.704 2.744,-5.205 5.889,-10.189 9.408,-14.907 5.29,-7.083 17.01,-20.609 36.17,-31.654 7.18,-4.126 14.74,-7.532 22.59,-10.17 -11.84,-7.346 -24.05,-15.013 -35.87,-22.449 -12.35,-7.74 -25.058,-15.715 -37.361,-23.365 -1.096,-0.644 -2.349,-0.97 -3.62,-0.943 z" />
  <path
     style="fill:#f3d2c9"
     id="path70"
     d="m 597.66896,328.3491 c 0,0 42.311,37.008 47.541,46.701 0.31,0.561 1.62,3.154 0.65,4.327 -1.85,2.245 -9.77,-3.412 -13.39,-0.516 -0.37,0.299 -0.68,0.664 -0.91,1.077 -0.41,0.766 -0.59,1.634 -0.51,2.498 0.07,0.865 0.39,1.689 0.93,2.374 1.21,1.61 2.8,4.192 2.65,6.645 0,0.729 -0.22,1.44 -0.64,2.037 -1.09,1.325 -3.1,1.336 -3.66,1.336 -3.67,0 -5.66,-3.542 -5.75,-3.704 -0.48,-0.388 -1.08,-0.593 -1.696,-0.58 -0.616,0.014 -1.208,0.245 -1.67,0.653 -0.293,0.307 -0.478,0.701 -0.528,1.122 -0.13,0.971 0.03,1.96 0.46,2.84 1.218,2.464 -0.207,10.411 -1.038,13.992 -1.254,5.342 -3.337,10.455 -6.174,15.153 -5.051,-11.034 -11.87,-28.623 -15.153,-49.95 -1.783,-11.648 -2.439,-23.44 -1.959,-35.213 0.213,-4.394 0.567,-8.098 0.847,-10.792 z" />
  <path
     style="fill:#000000"
     id="path72"
     d="m 613.94596,425.1641 h -0.045 c -0.153,-0.008 -0.302,-0.059 -0.429,-0.146 -0.126,-0.087 -0.226,-0.208 -0.289,-0.348 -7.362,-15.943 -12.488,-32.825 -15.232,-50.17 -1.792,-11.695 -2.452,-23.536 -1.97,-35.358 0.168,-3.62 0.449,-7.296 0.841,-10.866 0.014,-0.154 0.07,-0.302 0.163,-0.427 0.092,-0.125 0.217,-0.222 0.361,-0.28 0.144,-0.058 0.302,-0.075 0.455,-0.049 0.153,0.025 0.296,0.093 0.413,0.195 1.729,1.515 42.476,37.222 47.706,46.937 0.56,1.077 1.81,3.76 0.56,5.264 -1.24,1.504 -3.52,0.752 -6.21,-0.039 -2.68,-0.791 -5.68,-1.684 -7.29,-0.359 -0.29,0.231 -0.53,0.515 -0.7,0.836 -0.33,0.62 -0.47,1.321 -0.4,2.018 0.06,0.697 0.32,1.36 0.76,1.911 1.36,1.813 2.95,4.54 2.8,7.195 -0.01,0.908 -0.3,1.791 -0.83,2.526 -0.89,1.083 -2.34,1.638 -4.3,1.644 -3.78,0 -5.94,-3.222 -6.396,-3.99 -0.32,-0.209 -0.698,-0.309 -1.078,-0.287 -0.381,0.022 -0.745,0.166 -1.038,0.41 -0.162,0.188 -0.262,0.421 -0.286,0.668 -0.101,0.799 0.033,1.611 0.387,2.335 1.588,3.21 -0.707,13.402 -0.977,14.553 -1.272,5.427 -3.388,10.622 -6.269,15.395 -0.071,0.126 -0.173,0.232 -0.297,0.308 -0.124,0.076 -0.265,0.118 -0.41,0.124 z m -15.608,-95.109 c -0.303,3.037 -0.522,6.107 -0.662,9.143 -0.482,11.717 0.17,23.453 1.947,35.044 2.626,16.661 7.476,32.895 14.418,48.267 2.382,-4.23 4.153,-8.776 5.259,-13.503 0.994,-4.283 2.111,-11.399 1.123,-13.431 -0.524,-1.04 -0.72,-2.214 -0.561,-3.367 0.075,-0.607 0.347,-1.173 0.774,-1.611 0.615,-0.548 1.404,-0.859 2.227,-0.876 0.824,-0.018 1.627,0.259 2.267,0.78 0.07,0.062 0.14,0.141 0.18,0.231 0,0.033 1.8,3.26 5,3.26 1.44,0 2.45,-0.348 3,-1.027 0.31,-0.459 0.47,-0.999 0.46,-1.549 0.11,-2.149 -1.29,-4.49 -2.49,-6.095 -0.63,-0.814 -1.01,-1.796 -1.1,-2.825 -0.08,-1.029 0.13,-2.06 0.63,-2.967 0.28,-0.506 0.66,-0.954 1.12,-1.319 2.32,-1.852 5.78,-0.836 8.83,0.062 1.76,0.516 3.93,1.156 4.45,0.561 0.37,-0.454 0.05,-1.908 -0.75,-3.367 -4.6,-8.548 -39.146,-39.254 -46.122,-45.411 z" />
  <path
     style="fill:#000000"
     id="path74"
     d="m 672.02996,457.9961 c 6.98,0 12.63,-5.654 12.63,-12.628 0,-6.974 -5.65,-12.628 -12.63,-12.628 -6.97,0 -12.62,5.654 -12.62,12.628 0,6.974 5.65,12.628 12.62,12.628 z" />
  <path
     style="fill:#191818"
     id="path76"
     d="m 672.02996,458.8381 c -2.66,0 -5.26,-0.79 -7.48,-2.27 -2.21,-1.48 -3.94,-3.584 -4.96,-6.045 -1.02,-2.461 -1.29,-5.17 -0.77,-7.783 0.52,-2.612 1.81,-5.013 3.69,-6.896 1.88,-1.884 4.28,-3.167 6.9,-3.687 2.61,-0.519 5.32,-0.253 7.78,0.767 2.46,1.019 4.56,2.746 6.04,4.961 1.48,2.215 2.27,4.819 2.27,7.483 0,3.573 -1.42,6.999 -3.94,9.525 -2.53,2.526 -5.95,3.945 -9.53,3.945 z m 0,-25.256 c -2.33,0 -4.61,0.691 -6.54,1.986 -1.94,1.296 -3.45,3.136 -4.34,5.29 -0.9,2.154 -1.13,4.523 -0.68,6.81 0.46,2.286 1.58,4.386 3.23,6.034 1.65,1.649 3.75,2.771 6.03,3.226 2.29,0.455 4.66,0.221 6.81,-0.671 2.16,-0.892 4,-2.402 5.29,-4.341 1.3,-1.938 1.99,-4.217 1.99,-6.548 0,-3.126 -1.24,-6.123 -3.45,-8.334 -2.21,-2.21 -5.21,-3.452 -8.34,-3.452 z" />
  <path
     style="fill:#f8f59c"
     id="path78"
     d="m 785.40996,463.0481 c 9.76,0 17.67,-7.915 17.67,-17.679 0,-9.764 -7.91,-17.68 -17.67,-17.68 -9.77,0 -17.68,7.916 -17.68,17.68 0,9.764 7.91,17.679 17.68,17.679 z" />
  <path
     style="fill:#191818"
     id="path80"
     d="m 785.39996,463.8901 c -3.66,0 -7.24,-1.087 -10.28,-3.122 -3.05,-2.035 -5.42,-4.927 -6.83,-8.312 -1.4,-3.384 -1.76,-7.108 -1.05,-10.701 0.71,-3.592 2.48,-6.892 5.07,-9.483 2.59,-2.59 5.89,-4.354 9.48,-5.068 3.59,-0.715 7.32,-0.348 10.7,1.053 3.39,1.402 6.28,3.776 8.31,6.822 2.04,3.046 3.13,6.627 3.13,10.29 0,4.912 -1.96,9.623 -5.43,13.096 -3.47,3.473 -8.18,5.425 -13.1,5.425 z m 0,-35.359 c -3.33,0 -6.58,0.988 -9.35,2.838 -2.77,1.85 -4.93,4.48 -6.2,7.556 -1.28,3.077 -1.61,6.462 -0.96,9.728 0.65,3.267 2.25,6.267 4.61,8.621 2.35,2.355 5.35,3.959 8.62,4.608 3.27,0.65 6.65,0.317 9.73,-0.958 3.07,-1.274 5.7,-3.432 7.55,-6.201 1.85,-2.769 2.84,-6.024 2.84,-9.354 0,-4.466 -1.77,-8.748 -4.93,-11.906 -3.16,-3.158 -7.44,-4.932 -11.91,-4.932 z" />
  <path
     style="fill:#000000"
     id="path82"
     d="m 785.40996,457.9961 c 6.97,0 12.62,-5.654 12.62,-12.628 0,-6.974 -5.65,-12.628 -12.62,-12.628 -6.98,0 -12.63,5.654 -12.63,12.628 0,6.974 5.65,12.628 12.63,12.628 z" />
  <path
     style="fill:#191818"
     id="path84"
     d="m 785.40996,458.8381 c -2.67,0 -5.27,-0.79 -7.49,-2.27 -2.21,-1.48 -3.94,-3.584 -4.96,-6.045 -1.02,-2.461 -1.29,-5.17 -0.77,-7.783 0.52,-2.612 1.81,-5.013 3.69,-6.896 1.88,-1.884 4.28,-3.167 6.9,-3.687 2.61,-0.519 5.32,-0.253 7.78,0.767 2.46,1.019 4.57,2.746 6.05,4.961 1.48,2.215 2.27,4.819 2.27,7.483 0,3.573 -1.42,6.999 -3.95,9.525 -2.53,2.526 -5.95,3.945 -9.52,3.945 z m 0,-25.256 c -2.34,0 -4.61,0.691 -6.55,1.986 -1.94,1.296 -3.45,3.136 -4.34,5.29 -0.9,2.154 -1.13,4.523 -0.67,6.81 0.45,2.286 1.57,4.386 3.22,6.034 1.65,1.649 3.75,2.771 6.04,3.226 2.28,0.455 4.65,0.221 6.81,-0.671 2.15,-0.892 3.99,-2.402 5.29,-4.341 1.29,-1.938 1.98,-4.217 1.98,-6.548 0,-3.126 -1.24,-6.123 -3.45,-8.334 -2.21,-2.21 -5.21,-3.452 -8.33,-3.452 z" />
  <path
     style="fill:#f3d2c9"
     id="path86"
     d="m 722.68996,448.8091 5.75,0.769 5.27,-0.752 c 0.23,-0.033 0.46,0 0.67,0.095 0.21,0.095 0.39,0.249 0.51,0.442 0.12,0.193 0.19,0.418 0.19,0.648 0,0.231 -0.06,0.456 -0.19,0.65 l -5.1,8.014 c -0.15,0.227 -0.35,0.414 -0.59,0.545 -0.24,0.131 -0.51,0.202 -0.78,0.206 -0.28,0.004 -0.55,-0.057 -0.79,-0.18 -0.24,-0.123 -0.45,-0.304 -0.61,-0.526 l -5.48,-8.042 c -0.13,-0.193 -0.2,-0.419 -0.21,-0.65 0,-0.232 0.06,-0.46 0.18,-0.657 0.12,-0.197 0.3,-0.355 0.51,-0.455 0.21,-0.1 0.44,-0.137 0.67,-0.107 z" />
  <path
     style="fill:#000000"
     id="path88"
     d="m 728.38996,460.2871 c -0.41,-0.002 -0.81,-0.106 -1.17,-0.302 -0.37,-0.196 -0.67,-0.478 -0.9,-0.821 l -5.48,-8.037 c -0.22,-0.326 -0.35,-0.709 -0.36,-1.104 0,-0.395 0.1,-0.784 0.31,-1.12 0.21,-0.336 0.51,-0.605 0.86,-0.774 0.36,-0.169 0.76,-0.231 1.15,-0.178 l 5.61,0.752 5.16,-0.741 c 0.39,-0.054 0.78,0.004 1.13,0.167 0.36,0.163 0.66,0.423 0.87,0.751 0.21,0.328 0.33,0.709 0.33,1.099 0,0.391 -0.11,0.773 -0.32,1.103 l -5.1,8.015 c -0.22,0.35 -0.52,0.64 -0.89,0.843 -0.36,0.203 -0.76,0.312 -1.18,0.319 z m -5.87,-10.664 c -0.06,0 -0.12,0.016 -0.17,0.046 -0.05,0.031 -0.09,0.075 -0.12,0.128 -0.04,0.058 -0.07,0.126 -0.07,0.197 0,0.07 0.03,0.139 0.07,0.196 l 5.48,8.037 c 0.08,0.11 0.18,0.201 0.3,0.263 0.12,0.062 0.25,0.095 0.39,0.096 0.14,0 0.27,-0.036 0.39,-0.103 0.12,-0.066 0.22,-0.162 0.29,-0.278 l 5.1,-8.015 c 0.04,-0.056 0.06,-0.124 0.06,-0.194 0,-0.069 -0.02,-0.137 -0.06,-0.193 -0.04,-0.059 -0.09,-0.107 -0.16,-0.136 -0.06,-0.029 -0.13,-0.038 -0.2,-0.027 l -5.38,0.769 -5.87,-0.78 z" />
  <path
     style="fill:#000000"
     id="path90"
     d="m 720.04996,469.0311 c -0.56,0 -1.17,-0.034 -1.8,-0.095 -0.22,-0.023 -0.43,-0.133 -0.57,-0.307 -0.14,-0.173 -0.21,-0.396 -0.19,-0.619 0.03,-0.224 0.14,-0.429 0.31,-0.571 0.17,-0.142 0.4,-0.209 0.62,-0.187 3.29,0.325 5.7,-0.292 7.16,-1.841 2.14,-2.245 1.61,-5.809 1.6,-5.848 -0.03,-0.223 0.02,-0.451 0.16,-0.633 0.13,-0.182 0.33,-0.304 0.55,-0.338 0.23,-0.034 0.46,0.022 0.64,0.155 0.18,0.134 0.3,0.334 0.34,0.558 0,0.174 0.66,4.405 -2.04,7.262 -1.56,1.645 -3.83,2.464 -6.78,2.464 z" />
  <path
     style="fill:#000000"
     id="path92"
     d="m 736.45996,469.5921 c -2.94,0 -5.2,-0.819 -6.73,-2.453 -2.7,-2.856 -2.07,-7.088 -2.04,-7.262 0.04,-0.223 0.16,-0.424 0.34,-0.558 0.18,-0.133 0.41,-0.189 0.63,-0.155 0.23,0.034 0.43,0.156 0.56,0.338 0.13,0.182 0.19,0.41 0.16,0.633 0,0.062 -0.52,3.62 1.6,5.859 1.47,1.544 3.87,2.156 7.16,1.83 0.22,-0.022 0.44,0.045 0.62,0.187 0.17,0.142 0.28,0.348 0.3,0.571 0.03,0.223 -0.04,0.446 -0.18,0.62 -0.15,0.173 -0.35,0.284 -0.57,0.306 -0.67,0.05 -1.27,0.084 -1.85,0.084 z" />
  <path
     style="fill:#f8f3ed"
     id="path94"
     d="m 845.73996,451.2621 39.57,-12.067 z" />
  <path
     style="fill:#000000"
     id="path96"
     d="m 845.73996,452.1031 c -0.2,-0.002 -0.39,-0.075 -0.55,-0.206 -0.15,-0.132 -0.25,-0.313 -0.28,-0.511 -0.03,-0.198 0.02,-0.4 0.12,-0.57 0.11,-0.17 0.27,-0.297 0.46,-0.358 l 39.57,-12.066 c 0.21,-0.048 0.43,-0.016 0.61,0.091 0.18,0.106 0.32,0.278 0.38,0.481 0.07,0.204 0.05,0.423 -0.04,0.615 -0.1,0.192 -0.26,0.341 -0.46,0.418 l -39.56,12.067 c -0.08,0.026 -0.17,0.039 -0.25,0.039 z" />
  <path
     style="fill:#f8f3ed"
     id="path98"
     d="m 847.13996,459.9611 37.32,5.893 z" />
  <path
     style="fill:#000000"
     id="path100"
     d="m 884.45996,466.6961 h -0.12 l -37.33,-5.893 c -0.22,-0.034 -0.42,-0.156 -0.55,-0.338 -0.14,-0.182 -0.19,-0.41 -0.16,-0.633 0.03,-0.223 0.16,-0.424 0.34,-0.557 0.18,-0.134 0.41,-0.19 0.63,-0.156 l 37.32,5.893 c 0.23,0.017 0.43,0.122 0.58,0.292 0.15,0.17 0.22,0.391 0.2,0.615 -0.02,0.223 -0.12,0.43 -0.29,0.576 -0.17,0.146 -0.39,0.218 -0.62,0.201 z" />
  <path
     style="fill:#f8f3ed"
     id="path102"
     d="m 609.73596,459.9611 -33.955,7.577 z" />
  <path
     style="fill:#000000"
     id="path104"
     d="m 575.78096,468.3791 c -0.223,0.025 -0.447,-0.04 -0.622,-0.181 -0.175,-0.14 -0.288,-0.345 -0.312,-0.568 -0.025,-0.223 0.041,-0.447 0.181,-0.622 0.141,-0.176 0.345,-0.288 0.568,-0.312 l 33.955,-7.577 c 0.212,-0.034 0.428,0.014 0.605,0.134 0.177,0.12 0.301,0.303 0.348,0.512 0.048,0.208 0.014,0.427 -0.095,0.611 -0.108,0.185 -0.282,0.321 -0.487,0.382 l -33.955,7.576 c -0.06,0.024 -0.122,0.039 -0.186,0.045 z" />
  <path
     style="fill:#f8f3ed"
     id="path106"
     d="m 611.13896,450.7011 -37.323,-5.893 z" />
  <path
     style="fill:#000000"
     id="path108"
     d="m 611.13896,451.5421 h -0.129 l -37.323,-5.893 c -0.11,-0.017 -0.216,-0.056 -0.312,-0.114 -0.096,-0.058 -0.179,-0.134 -0.245,-0.224 -0.066,-0.09 -0.114,-0.193 -0.141,-0.301 -0.026,-0.109 -0.031,-0.222 -0.014,-0.332 0.017,-0.111 0.055,-0.217 0.113,-0.313 0.058,-0.095 0.134,-0.179 0.225,-0.245 0.09,-0.066 0.192,-0.114 0.301,-0.14 0.108,-0.027 0.221,-0.032 0.332,-0.015 l 37.322,5.893 c 0.224,0.017 0.431,0.122 0.577,0.292 0.145,0.17 0.218,0.391 0.201,0.614 -0.017,0.224 -0.123,0.431 -0.293,0.577 -0.17,0.146 -0.39,0.218 -0.614,0.201 z" />
  <path
     style="fill:#8bb174"
     id="path110"
     d="m 190.92996,115.9191 c 25.015,11.432 53.487,37.104 87.391,69.864 52.078,50.321 84.636,131.572 94.85,162.199 -3.238,1.504 -16.966,-23.954 -20.204,-22.45 -10.816,-29.6 -32.143,-77.929 -78.013,-125.157 -37.491,-38.602 -70.156,-67.164 -96.534,-79.697 z" />
  <path
     style="fill:#000000"
     id="path112"
     d="m 372.85196,348.9071 c -1.998,0 -4.815,-3.67 -10.467,-11.651 -3.087,-4.355 -7.745,-10.933 -9.103,-10.933 l -0.831,0.381 -0.264,-0.875 c -17.623,-48.267 -43.081,-89.081 -77.827,-124.86 -41.532,-42.784 -72.154,-68.051 -96.287,-79.523 l -1.785,-0.841 14.682,-5.613 0.326,0.146 c 23.959,10.956 51.292,34.921 87.621,70.026 22.641,21.889 43.929,51.719 63.286,88.705 17.78,34.028 28.141,62.983 31.766,73.843 l 0.242,0.713 -0.685,0.314 c -0.209,0.106 -0.439,0.164 -0.674,0.168 z m -19.318,-24.262 c 1.987,0.292 4.799,3.979 10.221,11.634 2.525,3.575 6.1,8.627 8.059,10.31 -5.612,-16.422 -38.08,-106.075 -94.076,-160.212 -36.043,-34.809 -63.168,-58.617 -86.835,-69.538 l -10.361,3.928 c 24.044,11.927 54.312,37.11 95.019,79.018 34.769,35.813 60.289,76.649 77.973,124.86 z" />
  <path
     style="fill:#8bb174"
     id="path114"
     d="m 329.98496,366.3231 c -41.914,-35.358 -100.609,-78.287 -120.185,-85.808 -50.388,-19.363 -95.119,-27.81 -124.084998,-28.096 3.113,-3.195 6.232,-6.387 9.356,-9.575 27.500998,-0.123 67.129998,7.515 111.686998,23.011 17.87,6.224 86.275,50.782 135.26,95.776 z" />
  <path
     style="fill:#000000"
     id="path116"
     d="m 329.82596,367.2881 -0.387,-0.32 c -40.707,-34.365 -99.98,-78.013 -119.943,-85.668 -44.827,-17.214 -91.129,-27.72 -123.793998,-28.04 h -1.97 l 10.978,-11.225 h 0.999 c 28.623998,0 69.145998,8.385 111.294998,23.062 17.584,6.123 85.309,49.804 135.546,95.972 l 0.993,0.915 z M 87.683962,251.6041 c 32.719998,0.696 78.270998,11.163 122.445998,28.124 20.059,7.706 79.242,51.231 120.044,85.629 l 10.271,-4.018 c -49.159,-44.9 -117.053,-88.8 -133.969,-94.688 -41.969,-14.592 -82.278,-22.966 -110.738998,-22.966 h -0.286 z" />
  <path
     style="fill:#8bb174"
     id="path118"
     d="m 373.75496,349.0031 c -9.967,-13.414 -33.427,-54.519 -47.099,-67.781 -27.303,-26.43 -58.903,-48.024 -93.447,-63.859 l -12.521,4.737 c 38.307,18.268 73.045,43.229 102.578,73.708 9.934,10.265 30.554,48.138 38.4,58.37 z" />
  <path
     style="fill:#000000"
     id="path120"
     d="m 361.39696,355.2221 -0.398,-0.517 c -3.149,-4.113 -8.183,-12.386 -14.031,-21.961 -8.632,-14.171 -18.409,-30.234 -24.324,-36.346 -29.444,-30.426 -64.102,-55.327 -102.332,-73.523 l -1.762,-0.881 14.688,-5.556 0.325,0.145 c 34.643,15.862 66.325,37.519 93.683,64.038 9.053,8.778 22.416,29.746 33.152,46.584 5.708,8.979 10.664,16.696 14.032,21.271 l 0.639,0.853 z m -138.571,-133.015 c 37.71,18.209 71.909,42.932 101.024,73.029 6.045,6.247 15.878,22.394 24.549,36.644 5.337,8.761 10.389,17.056 13.526,21.288 l 10.501,-4.49 c -3.396,-4.692 -8.088,-12.061 -13.47,-20.514 -10.692,-16.781 -23.993,-37.665 -32.906,-46.308 -27.13,-26.305 -58.536,-47.804 -92.874,-63.578 z" />
  <path
     style="fill:#333333"
     id="path122"
     d="m 741.90996,656.6771 19.08,42.653 c -9.52,1.08 -19.15,0.89 -28.62,-0.56 0,0 -16.39,-1.9 -27.27,-10.1 -7.57,-5.682 -7.93,-9.684 -8.02,-10.879 -0.44,-5.467 3.16,-9.334 4.56,-10.664 l 0.42,-0.382 c 5.05,-4.411 14.03,-5.011 14.59,-5.051 5.75,-0.353 13.69,-1.841 25.26,-5.017 z" />
  <path
     style="fill:#191818"
     id="path124"
     d="m 748.71996,700.8601 c -5.52,0.01 -11.03,-0.42 -16.48,-1.26 -0.65,-0.07 -16.7,-2.01 -27.65,-10.23 -5.25,-3.929 -8.06,-7.802 -8.35,-11.483 -0.44,-5.489 2.81,-9.457 4.82,-11.338 l 0.44,-0.404 c 4.99,-4.366 13.47,-5.146 15.09,-5.258 6.07,-0.41 14.28,-2.055 25.09,-5.052 l 0.7,-0.19 19.85,44.335 -1.12,0.13 c -4.11,0.48 -8.25,0.73 -12.39,0.75 z m -7.3,-43.178 c -10.58,2.873 -18.68,4.49 -24.73,4.888 -0.95,0.062 -9.42,0.747 -14.09,4.844 -0.17,0.151 -0.33,0.297 -0.38,0.348 -1.79,1.683 -4.71,5.203 -4.32,9.99 0.25,3.177 2.84,6.634 7.68,10.268 10.58,7.94 26.7,9.9 26.87,9.91 9.03,1.39 18.2,1.62 27.28,0.69 z" />
  <path
     style="fill:#333333"
     id="path126"
     d="m 570.04496,610.5041 16.961,-50.361 c -11.521,-0.169 -22.963,1.929 -33.675,6.174 -7.711,3.219 -14.899,7.57 -21.327,12.909 -0.561,0.477 -8.419,7.228 -8.699,13.733 0,0.354 0,0.685 0,0.707 0.129,5.484 4.114,8.98 5.646,10.103 l 0.46,0.336 c 4.698,3.323 10.428,2.953 18.875,3.16 4.765,0.118 7.144,0.18 10.102,0.561 3.961,0.524 7.864,1.421 11.657,2.678 z" />
  <path
     style="fill:#191818"
     id="path128"
     d="m 570.04496,611.3511 c -0.09,-0.002 -0.179,-0.017 -0.264,-0.045 -3.743,-1.237 -7.596,-2.115 -11.505,-2.621 -2.919,-0.382 -5.293,-0.438 -10.019,-0.562 -1.06,0 -2.082,-0.044 -3.064,-0.061 -6.943,-0.113 -11.96,-0.197 -16.276,-3.25 l -0.483,-0.359 c -2.172,-1.684 -5.842,-5.265 -5.977,-10.77 0,0 0,-0.376 0,-0.769 0.303,-6.814 8.11,-13.588 8.98,-14.34 6.524,-5.387 13.807,-9.782 21.613,-13.043 10.814,-4.278 22.361,-6.395 33.989,-6.23 0.134,10e-4 0.266,0.034 0.385,0.097 0.118,0.062 0.22,0.152 0.297,0.262 0.077,0.11 0.126,0.236 0.145,0.369 0.018,0.133 0.004,0.268 -0.041,0.394 l -16.961,50.361 c -0.058,0.169 -0.169,0.316 -0.317,0.417 -0.147,0.102 -0.323,0.155 -0.502,0.15 z m 15.715,-50.378 c -11.001,0 -21.902,2.077 -32.131,6.124 -7.621,3.197 -14.728,7.501 -21.092,12.774 -0.331,0.28 -8.132,6.92 -8.419,13.121 0,0.309 0,0.601 0,0.64 0.118,4.816 3.368,8.015 5.315,9.491 l 0.432,0.32 c 3.895,2.75 8.694,2.806 15.334,2.941 0.987,0 2.009,0.033 3.081,0.061 4.782,0.118 7.184,0.18 10.186,0.562 3.739,0.487 7.427,1.302 11.023,2.435 l 16.327,-48.474 z" />
  <path
     style="fill:#da4e22"
     id="path130"
     d="m 75.600962,82.518101 -15.743,-8.587 c -3.925,-2.141 -7.129,-5.396 -9.206,-9.356 -2.078,-3.959 -2.936,-8.445 -2.468,-12.891 l 1.319,-12.465 c 0.528,-4.997 2.135,-9.819 4.709,-14.133 2.575,-4.314 6.056,-8.018 10.203,-10.854 2.405,-1.644 5.201,-2.625 8.106,-2.843 2.905,-0.219 5.816,0.332 8.44,1.597 1.514,0.705 3.065,1.327 4.647,1.863 18.282998,6.462 34.913998,16.882 48.704998,30.515 l -24.398,44.243 z" />
  <path
     style="fill:#000000"
     id="path132"
     d="m 110.34696,90.556101 -35.037998,-7.24 -0.112,-0.062 -15.743,-8.581 c -4.073,-2.218 -7.395,-5.596 -9.547,-9.704 -2.151,-4.109 -3.034,-8.764 -2.537,-13.374 l 1.319,-12.466 c 0.537,-5.118 2.182,-10.058 4.819,-14.477 2.637,-4.419 6.203,-8.212 10.453,-11.115 2.53,-1.726 5.47,-2.755 8.524,-2.985 3.054,-0.23 6.114,0.349 8.874,1.677 1.488,0.69 3.011,1.301 4.563,1.83 18.398998,6.497 35.132998,16.985 49.001998,30.711 l 0.455,0.443 z m -34.453998,-8.84 33.583998,6.943 23.792,-43.143 c -13.611,-13.333 -29.974,-23.528 -47.941998,-29.869 -1.61,-0.539 -3.189,-1.165 -4.731,-1.875 -2.493,-1.201 -5.257,-1.723 -8.016,-1.515 -2.759,0.207 -5.415,1.139 -7.699,2.7 -4.049,2.764 -7.448,6.377 -9.961,10.587 -2.513,4.21 -4.08,8.917 -4.592,13.793 l -1.319,12.465 c -0.46,4.281 0.361,8.602 2.359,12.416 1.998,3.814 5.084,6.949 8.866,9.007 z" />
  <path
     style="fill:#da4e22"
     id="path134"
     d="m 90.434962,67.652101 -0.388,0.028 c -4.933,0.359 -9.619,2.301 -13.36,5.537 -3.741,3.236 -6.338,7.592 -7.406,12.422 l -1.504,6.803 c -1.557,7.045 -0.529,14.415999 2.897,20.765999 3.426,6.35 9.021,11.256 15.765,13.823 l 46.296998,17.623 7.127,-50.623999 -31.99,-21.714 c -5.121,-3.476 -11.265998,-5.12 -17.437998,-4.664 z" />
  <path
     style="fill:#000000"
     id="path136"
     d="m 133.42596,145.8171 -47.284998,-17.994 c -6.932,-2.639 -12.685,-7.683 -16.208,-14.211 -3.523,-6.528 -4.581,-14.105999 -2.98,-21.348999 l 1.504,-6.797 c 1.086,-5.018 3.773,-9.547 7.656,-12.905 3.882,-3.359 8.751,-5.365 13.873,-5.717 l 0.387,-0.028 c 6.356,-0.452 12.680998,1.241 17.959998,4.81 l 32.429,22.012 z m -42.928998,-77.322999 -0.388,0.028 c -4.76,0.327 -9.285,2.191 -12.894,5.313 -3.609,3.122 -6.105,7.332 -7.114,11.996 l -1.504,6.796 c -1.479,6.846 -0.464,13.994999 2.862,20.158999 3.326,6.164 8.744,10.937 15.277,13.46 l 45.314998,17.247 6.904,-49.046999 -31.531,-21.423 c -4.967,-3.359 -10.917998,-4.954 -16.898998,-4.529 z" />
  <path
     style="fill:#da4e22"
     id="path138"
     d="m 172.52796,36.682101 -18.033,-23.903 c -3.441,-4.5679998 -8.112,-8.0619998 -13.466,-10.0719998 -5.354,-2.01099996 -11.17,-2.45599996 -16.768,-1.282 l -5.91,1.24 c -2.859,0.596 -5.526,1.888 -7.765,3.763 -2.238,1.875 -3.979,4.2749998 -5.066,6.9849998 -1.088,2.71 -1.489,5.646 -1.167,8.549 0.321,2.902 1.355,5.68 3.009,8.086 l 15.154,21.496 47.486,17.18 z" />
  <path
     style="fill:#000000"
     id="path140"
     d="m 170.75396,69.897101 -48.772,-17.646 -15.31,-21.714 c -1.727,-2.52 -2.805,-5.428 -3.138,-8.465 -0.334,-3.036 0.088,-6.109 1.226,-8.943 1.139,-2.835 2.96,-5.3449998 5.301,-7.3069998 2.342,-1.963 5.131,-3.317 8.122,-3.942 l 5.915,-1.23499996 c 5.743,-1.189 11.705,-0.728 17.196,1.32999996 5.492,2.058 10.288,5.629 13.835,10.2989998 l 18.224,24.133 -0.028,0.32 z m -47.705,-19.049 46.196,16.714 2.391,-30.599 -17.837,-23.651 c -3.355,-4.4209998 -7.893,-7.8029998 -13.089,-9.7529998 -5.197,-1.951 -10.839,-2.391 -16.275,-1.27 l -5.916,1.241 c -2.717,0.569 -5.253,1.799 -7.381,3.582 -2.129,1.784 -3.784,4.0649998 -4.82,6.6409998 -1.036,2.576 -1.42,5.368 -1.119,8.129 0.302,2.76 1.28,5.403 2.848,7.695 z" />
  <path
     style="fill:#f8f59c"
     id="path142"
     d="m 133.50396,113.8471 c 20.188,0 36.554,-16.365999 36.554,-36.553999 0,-20.188 -16.366,-36.554 -36.554,-36.554 -20.188,0 -36.553998,16.366 -36.553998,36.554 0,20.188 16.365998,36.553999 36.553998,36.553999 z" />
  <path
     style="fill:#191818"
     id="path144"
     d="m 133.48696,114.6731 c -6.084,-0.003 -12.075,-1.489 -17.453,-4.331 -5.379,-2.842 -9.983,-6.953 -13.413,-11.976999 -3.429998,-5.024 -5.582998,-10.81 -6.270998,-16.854 -0.688,-6.044 0.109,-12.165 2.323,-17.832 2.212998,-5.666 5.774998,-10.707 10.377998,-14.685 4.603,-3.978 10.106,-6.773 16.034,-8.142 5.927,-1.369 12.099,-1.272 17.98,0.285 5.881,1.556 11.293,4.523 15.767,8.645 5.54,5.098 9.41,11.75 11.106,19.085 1.696,7.334 1.138,15.01 -1.601,22.023 -2.739,7.012 -7.531,13.033999 -13.749,17.276999 -6.218,4.244 -13.573,6.511 -21.101,6.506 z m 0.028,-73.073999 c -8.322,0.003 -16.381,2.914 -22.784,8.228 -6.403,5.315 -10.748998,12.7 -12.283998,20.879 -1.536,8.179 -0.166,16.637 3.872998,23.913 4.039,7.274999 10.493,12.910999 18.246,15.932999 7.754,3.022 16.32,3.24 24.217,0.616 7.897,-2.623 14.629,-7.924 19.033,-14.984999 4.404,-7.061 6.202,-15.439 5.084,-23.685 -1.118,-8.246 -5.082,-15.842 -11.207,-21.476 -6.586,-6.072 -15.22,-9.437 -24.178,-9.423 z" />
  <path
     style="fill:#da4e22"
     id="path146"
     d="m 141.85496,36.671101 -1.785,13.711 c -0.712,5.45 0.59,10.619 3.649,14.492 l 24.503,31.025 14.368,37.485999 c 2.968,-5.069 5.508,-10.376 7.594,-15.867 0,0 5.421,-15.254 4.799,-32.332999 -1.123,-31.699 -23.489,-56.916 -27.226,-61.029 -1.594,-1.927 -3.754,-3.301 -6.174,-3.929 -4.67,-1.123 -8.548,1.352 -10.563,2.632 -6.723,4.271 -8.665,11.595 -9.165,13.812 z" />
  <path
     style="fill:#000000"
     id="path148"
     d="m 182.41696,135.2821 -14.94,-38.960999 -24.42,-30.913 c -3.21,-4.064 -4.563,-9.435 -3.822,-15.154 l 1.802,-13.784 c 0.808,-3.609 3.126,-10.265 9.541,-14.34 2.009,-1.274 6.173,-3.929 11.225,-2.739 2.596,0.664 4.913,2.136 6.617,4.204 6.145,6.763 26.333,31.244 27.428,61.54 0.617,17.050999 -4.793,32.490999 -4.844,32.647999 -2.113,5.544 -4.679,10.905 -7.672,16.029 z m -39.73,-98.463999 -1.785,13.672 c -0.679,5.236 0.561,10.158 3.474,13.862 l 24.588,31.127 0.045,0.118 13.739,35.840999 c 2.552,-4.577 4.775,-9.329 6.651,-14.222 0.051,-0.135 5.349,-15.288 4.743,-31.990999 -1.078,-29.746 -20.946,-53.818 -27.008,-60.491 -1.479,-1.799 -3.491,-3.082 -5.747,-3.665 -4.321,-1.032 -7.964,1.28 -9.917,2.52 -5.882,3.71 -8.026,9.867 -8.783,13.229 z" />
  <path
     style="fill:#da4e22"
     id="path150"
     d="m 132.11796,144.7271 -27.725,-12.813 c -5.677998,-2.633 -10.094998,-7.39 -12.299998,-13.248 -2.204,-5.858 -2.02,-12.347 0.513,-18.07 l 5.764,-13.008999 c 3.219998,-7.264 9.071998,-13.039 16.376998,-16.163 7.306,-3.124 15.524,-3.365 23,-0.675 l 33.215,11.983 c 6.629,2.398 12.229,7.008 15.857,13.053 3.627,6.044999 5.059,13.154999 4.056,20.132999 -1.503,7.142 -4.897,13.748 -9.828,19.128 -12.762,13.666 -30.93,12.908 -34.163,12.751 -5.055,-0.224 -10.041,-1.26 -14.766,-3.07 z" />
  <path
     style="fill:#000000"
     id="path152"
     d="m 148.95596,148.6951 c -0.774,0 -1.476,0 -2.088,-0.039 -5.152,-0.23 -10.233,-1.292 -15.047,-3.143 h -0.056 l -27.708,-12.836 c -5.862998,-2.744 -10.420998,-7.669 -12.703998,-13.726 -2.282,-6.057 -2.108,-12.766 0.485,-18.697 l 5.759,-13.008999 c 3.323998,-7.445 9.334998,-13.361 16.831998,-16.565 7.498,-3.203 15.928,-3.459 23.605,-0.716 l 33.215,11.982 c 6.804,2.479 12.55,7.219 16.278,13.428 3.728,6.207999 5.211,13.507999 4.202,20.678999 v 0.062 c -1.534,7.292 -5.002,14.036 -10.041,19.526 -10.686,11.41 -25.239,13.054 -32.732,13.054 z m -16.528,-4.714 c 4.639,1.777 9.534,2.796 14.496,3.019 6.314,0.269 22.226,-0.404 33.507,-12.482 4.824,-5.261 8.144,-11.722 9.614,-18.706 0.95,-6.783 -0.456,-13.686 -3.985,-19.555999 -3.528,-5.87 -8.965,-10.351 -15.401,-12.693 l -33.214,-11.988 c -7.276,-2.6 -15.265,-2.358 -22.37,0.678 -7.105,3.037 -12.802,8.643 -15.951998,15.699 l -5.764,13.014999 c -2.415,5.525 -2.576,11.776 -0.449,17.419 2.127,5.643 6.375,10.231 11.836998,12.787 z" />
  <path
     style="fill:#da4e22"
     id="path154"
     d="m 35.292962,191.3771 -2.301,-7.941 c -1.45,-5.005 -1.107,-10.358 0.969,-15.137 2.076,-4.779 5.754,-8.683 10.401,-11.04 4.161,-2.105 8.826,-3.01 13.472,-2.613 4.646,0.396 9.09,2.079 12.834,4.858 7.066,2.369 39.033998,13.93 55.455998,47.42 5.694,11.704 8.804,24.496 9.12,37.508 0.015,0.83 -0.194,1.649 -0.604,2.372 -0.411,0.722 -1.008,1.32 -1.729,1.733 -0.721,0.412 -1.54,0.623 -2.37,0.611 -0.831,-0.012 -1.643,-0.247 -2.351,-0.681 z" />
  <path
     style="fill:#000000"
     id="path156"
     d="m 130.60896,250.0121 c -1.016,-0.004 -2.011,-0.29 -2.874,-0.825 l -93.165998,-57.247 -2.391,-8.256 c -1.5,-5.192 -1.144,-10.745 1.007,-15.702 2.151,-4.958 5.963,-9.011 10.779,-11.462 4.274,-2.185 9.072,-3.134 13.855,-2.743 4.784,0.392 9.363,2.109 13.225,4.96 11.786,3.962 40.465998,16.489 55.815998,47.806 5.769,11.805 8.911,24.72 9.21,37.856 0.035,0.984 -0.2,1.959 -0.681,2.818 -0.481,0.859 -1.189,1.57 -2.047,2.054 -0.83,0.482 -1.773,0.737 -2.733,0.741 z m -94.597998,-59.178 92.604998,56.916 c 0.581,0.36 1.248,0.556 1.931,0.568 0.682,0.013 1.356,-0.159 1.949,-0.498 0.593,-0.338 1.084,-0.831 1.42,-1.425 0.337,-0.594 0.507,-1.268 0.492,-1.951 -0.292,-12.896 -3.371,-25.577 -9.024,-37.171 -15.154,-30.857 -43.496998,-43.143 -55.001998,-47.016 l -0.129,-0.044 -0.107,-0.079 c -3.614,-2.689 -7.909,-4.313 -12.398,-4.688 -4.489,-0.375 -8.994,0.514 -13.004,2.567 -4.469,2.269 -8.008,6.027 -10.005,10.624 -1.998,4.598 -2.33,9.748 -0.939,14.564 z" />
  <path
     style="fill:#da4e22"
     id="path158"
     d="m 9.1379621,269.2781 9.6089999,7.156 c 2.865,2.127 5.956,3.934 9.215,5.388 3.91,1.724 7.928,3.192 12.028,4.395 8.873,2.604 30.761,9.013 55.102,0.056 18.666998,-6.87 30.267998,-19.644 36.318998,-27.984 0.417,-0.557 0.678,-1.214 0.758,-1.906 0.079,-0.691 -0.026,-1.391 -0.306,-2.028 -0.28,-0.637 -0.724,-1.188 -1.286,-1.597 -0.563,-0.41 -1.224,-0.662 -1.917,-0.732 L 22.977962,240.0431 c -3.735,-0.423 -7.511,0.305 -10.822,2.087 -3.3099999,1.783 -5.9959999,4.535 -7.6989999,7.887 -1.615,3.247 -2.032,6.96 -1.175,10.485 0.856,3.524 2.93,6.633 5.856,8.776 z" />
  <path
     style="fill:#000000"
     id="path160"
     d="m 68.781962,291.7281 c -12.908,0 -23.308,-3.053 -29.016,-4.726 -4.136,-1.209 -8.188,-2.69 -12.129,-4.433 -3.318,-1.478 -6.463,-3.317 -9.378,-5.484 l -9.6139999,-7.133 c -3.094,-2.255 -5.286,-5.535 -6.188,-9.256 -0.901,-3.72 -0.453,-7.64 1.266,-11.061 1.79,-3.496 4.6,-6.365 8.0579999,-8.228 3.458,-1.862 7.401,-2.629 11.305,-2.2 l 105.664998,11.971 c 0.837,0.09 1.635,0.399 2.315,0.895 0.68,0.496 1.217,1.162 1.558,1.931 0.342,0.769 0.474,1.615 0.386,2.452 -0.089,0.837 -0.397,1.635 -0.892,2.316 -6.667,9.193 -18.448,21.557 -36.709998,28.281 -8.529,3.122 -17.544,4.705 -26.626,4.675 z m -59.1439999,-23.151 9.6259999,7.133 c 2.811,2.095 5.848,3.87 9.053,5.293 3.872,1.73 7.854,3.203 11.92,4.411 9.126,2.677 30.498,8.935 54.581,0.073 17.858998,-6.572 29.392998,-18.684 35.919998,-27.686 0.324,-0.442 0.526,-0.962 0.584,-1.507 0.058,-0.545 -0.029,-1.096 -0.253,-1.597 -0.216,-0.499 -0.562,-0.932 -1.001,-1.253 -0.439,-0.322 -0.955,-0.521 -1.497,-0.576 L 22.883962,240.8791 c -3.566,-0.39 -7.165,0.314 -10.321,2.018 -3.1559999,1.704 -5.7179999,4.328 -7.3469999,7.524 -1.526,3.061 -1.919,6.563 -1.11,9.887 0.81,3.323 2.77,6.252 5.532,8.269 z" />
  <path
     style="fill:#da4e22"
     id="path162"
     d="m 1.4259621,212.4531 c 1.2,5.028 3.472,9.737 6.661,13.806 3.1889999,4.068 7.2189999,7.4 11.8149999,9.766 l 32.227,16.585 c 2.161,0.847 5.321,2.026 9.188,3.266 8.233,2.676 16.683,4.629 25.256,5.837 15.304998,1.818 32.191998,-3.008 41.777998,-6.404 0.925,-0.328 1.776,-0.835 2.504,-1.492 0.728,-0.658 1.32,-1.452 1.741,-2.339 0.42,-0.886 0.662,-1.847 0.711,-2.826 0.049,-0.98 -0.096,-1.96 -0.426,-2.884 -5.736,-15.878 -14.189,-25.02 -18.953,-29.443 -8.801,-8.166 -19.480998,-13.616 -28.017998,-17.96 -5.404,-2.759 -10.947,-5.237 -16.607,-7.425 l -27.445,-7.582 c -9.078,-2.492 -18.772,-1.315 -26.99,3.277 l -2.756,1.538 c -4.1779999,2.336 -7.4809999,5.969 -9.4099999,10.35 -1.92800002,4.381 -2.37600002,9.271 -1.276,13.93 z" />
  <path
     style="fill:#000000"
     id="path164"
     d="m 93.667962,262.9641 c -2.395,0.007 -4.788,-0.128 -7.167,-0.404 -5.22,-0.623 -15.019,-2.531 -25.442,-5.87 -3.109,-0.999 -6.218,-2.105 -9.238,-3.284 l -0.078,-0.033 -32.227,-16.591 c -4.706,-2.42 -8.832,-5.83 -12.0949999,-9.996 -3.263,-4.166 -5.585,-8.989 -6.80800002,-14.137 -1.143,-4.843 -0.679,-9.927 1.32100002,-14.483 2.001,-4.556 5.43,-8.338 9.7699999,-10.773 l 2.755,-1.538 c 8.416,-4.721 18.359,-5.916 27.653,-3.322 l 27.501,7.604 c 5.687,2.201 11.258,4.691 16.691,7.459 8.61,4.395 19.317998,9.856 28.202998,18.1 8.418,7.79 14.85,17.809 19.172,29.774 0.369,1.029 0.531,2.121 0.476,3.213 -0.054,1.092 -0.323,2.162 -0.793,3.15 -0.469,0.987 -1.129,1.872 -1.942,2.603 -0.812,0.732 -1.761,1.295 -2.793,1.659 -9.249,3.311 -22.236,6.869 -34.958998,6.869 z m -41.196,-11.112 c 2.975,1.167 6.039,2.245 9.104,3.232 10.304,3.306 19.974,5.192 25.127,5.804 14.524998,1.723 30.525998,-2.509 41.396998,-6.365 0.821,-0.29 1.577,-0.739 2.224,-1.322 0.646,-0.582 1.172,-1.287 1.545,-2.074 0.374,-0.786 0.588,-1.639 0.631,-2.509 0.042,-0.869 -0.087,-1.739 -0.382,-2.558 -4.231,-11.719 -10.534,-21.507 -18.734,-29.118 -8.71,-8.082 -19.306998,-13.47 -27.820998,-17.83 -5.369,-2.737 -10.875,-5.199 -16.495,-7.375 l -27.405,-7.571 c -8.867,-2.468 -18.35,-1.328 -26.379,3.171 l -2.75,1.538 c -4.0209999,2.256 -7.1979999,5.759 -9.0529999,9.979 -1.855,4.221 -2.286,8.931 -1.229,13.419 1.17,4.909 3.388,9.507 6.502,13.479 3.1129999,3.972 7.0489999,7.223 11.5369999,9.532 z" />
  <path
     style="fill:#da4e22"
     id="path166"
     d="m 206.64496,168.6081 c -0.834,-0.015 -1.662,0.154 -2.424,0.496 -0.762,0.341 -1.439,0.846 -1.984,1.479 -0.544,0.633 -0.942,1.378 -1.166,2.182 -0.224,0.805 -0.267,1.649 -0.128,2.472 2.245,13.29 7.959,42.609 15.906,50.018 10.366,9.664 27.024,65.312 73.354,53.576 31.812,-8.06 22.035,-41.263 12.774,-61.299 -5.129,-11.136 -13.273,-20.614 -23.51,-27.361 -10.17,-6.639 -21.233,-11.798 -32.855,-15.322 -12.968,-3.925 -26.419,-6.026 -39.967,-6.241 z" />
  <path
     style="fill:#000000"
     id="path168"
     d="m 277.86596,281.2831 c -28.18,0 -43.625,-26.435 -53.318,-43.047 -3.204,-5.489 -5.971,-10.232 -8.261,-12.348 -7.908,-7.369 -13.52,-34.797 -16.164,-50.512 -0.161,-0.945 -0.112,-1.914 0.145,-2.839 0.256,-0.924 0.714,-1.78 1.339,-2.507 0.626,-0.727 1.404,-1.307 2.28,-1.698 0.876,-0.391 1.827,-0.585 2.786,-0.566 13.631,0.212 27.167,2.328 40.213,6.286 11.692,3.547 22.82,8.738 33.051,15.417 10.374,6.827 18.624,16.427 23.814,27.709 6.55,14.166 12.959,33.983 6.308,47.93 -3.44,7.218 -10.046,12.112 -19.643,14.536 -4.099,1.067 -8.314,1.618 -12.55,1.639 z m -71.328,-111.839 c -0.704,0.002 -1.398,0.156 -2.036,0.454 -0.638,0.297 -1.203,0.73 -1.656,1.267 -0.454,0.538 -0.785,1.169 -0.97,1.847 -0.185,0.679 -0.22,1.39 -0.103,2.084 2.099,12.465 7.824,42.25 15.648,49.541 2.469,2.301 5.163,6.914 8.575,12.751 10.816,18.521 28.921,49.513 63.982,40.629 9.075,-2.302 15.311,-6.887 18.521,-13.633 6.37,-13.358 0.079,-32.659 -6.314,-46.499 -5.058,-10.997 -13.101,-20.354 -23.213,-27.007 -10.098,-6.592 -21.081,-11.717 -32.619,-15.221 -12.898,-3.909 -26.278,-6 -39.753,-6.213 z" />
  <path
     style="fill:#8bb174"
     id="path170"
     d="m 392.88896,340.9781 c 1.611,-0.842 -15.226,-164.164 -62.371,-227.023 -47.144,-62.858999 -58.369,-72.961999 -58.369,-72.961999 0,0 -1.123,47.706 19.082,81.379999 20.205,33.675 43.777,89.799 50.512,102.147 6.735,12.347 31.43,125.157 31.43,125.157 z" />
  <path
     style="fill:#000000"
     id="path172"
     d="m 372.57096,350.8611 -0.219,-1.005 c -0.252,-1.122 -24.751,-112.81 -31.351,-124.933 -2.178,-3.99 -6.095,-12.515 -11.056,-23.308 -10.254,-22.298 -25.745,-55.99 -39.439,-78.81 -20.098,-33.494999 -19.2,-81.351999 -19.2,-81.834999 l 0.045,-1.829 1.358,1.229 c 0.46,0.409 11.825,10.871 58.482,73.078999 24.43,32.552 40.258,91.483 49.226,135.181 9.968,48.542 13.936,89.799 13.352,92.432 -0.025,0.141 -0.082,0.276 -0.165,0.393 -0.084,0.118 -0.192,0.215 -0.317,0.286 h -0.057 z m -99.581,-307.830999 c 0.078,9.423 1.464,49.732 18.97,78.910999 13.733,22.893 29.252,56.641 39.517,78.967 4.95,10.764 8.862,19.267 11.011,23.207 6.449,11.831 28.669,112.445 31.29,124.377 l 18.38,-8.076 c 0.27,-4.557 -3.968,-45.562 -13.402,-91.483 -8.941,-43.496 -24.695,-102.146 -48.912,-134.44 -37.851,-50.500999 -52.623,-67.017999 -56.854,-71.462999 z" />
</svg>
